# xmcd CD database file
#
# Track frame offsets:
#	150
#	14167
#	22741
#	36495
#	46879
#	56968
#	69400
#	81988
#	93461
#	104110
#	118547
#	130687
#	144472
#	157880
#	167848
#	179253
#	188635
#	198842
#
# Disc length: 2779 seconds
#
# Revision: 0
# Processed by: cddbd v1.5.2PL0 Copyright (c) Steve Scherf et al.
# Submitted via: CDex 1.70beta2
#
DISCID=f80ad912
DTITLE=The Legandary Rat Pack - Dean [CD 2)
DYEAR=2008
DGENRE=Jazz
TTITLE0=That's Amore
TTITLE1=I Dont't Care If The Sun Don't Shine
TTITLE2=Bye Bye Blackbird
TTITLE3=Mambo Italiano
TTITLE4=Pennies From Heaven
TTITLE5=How D'YaLike Your Eggs in The Morning
TTITLE6=Wham! Bam! Thak You Mam!
TTITLE7=I'll Always Love You (Day After Day)
TTITLE8=Kiss
TTITLE9=Come Back To Sorrento
TTITLE10=Sway
TTITLE11=Muskrat Rumble
TTITLE12=In The Cool Cool Cool Of The Evening
TTITLE13=Zing A Zing A Zing Boom
TTITLE14=Powder Your Face Wih Sunshine (Smile! Smile! Smile!)
TTITLE15=Luna Mezzo Mare
TTITLE16=Memories Are Made Of This
TTITLE17=Watching The World Go By
EXTD=YEAR: 2008
EXTT0=
EXTT1=
EXTT2=
EXTT3=
EXTT4=
EXTT5=
EXTT6=
EXTT7=
EXTT8=
EXTT9=
EXTT10=
EXTT11=
EXTT12=
EXTT13=
EXTT14=
EXTT15=
EXTT16=
EXTT17=
PLAYORDER=
